<?xml version="1.0" encoding="UTF-8"?>
<svg xmlns="http://www.w3.org/2000/svg" viewBox="0 0 800 600">
  <defs>
    <filter id="grain" x="-5%" y="-5%" width="110%" height="110%">
      <feTurbulence type="fractalNoise" baseFrequency="0.8" numOctaves="2" result="noise"/>
      <feColorMatrix type="matrix" values="0 0 0 0 1  0 0 0 0 1  0 0 0 0 1  0 0 0 0.15 0" in="noise" result="softNoise"/>
    </filter>
  </defs>
  <rect width="800" height="600" fill="#fff"/>
  <path fill="#fff" d="M58,43c45-7,88-16,144-22s122-6,180,2,109,25,166,33,118,8,160,18,58,32,64,62,2,70-6,104-20,64-40,90-50,44-86,56-80,18-122,26-84,18-132,22-100,2-140-4-70-18-106-32-76-30-106-56-50-62-56-98,2-74,16-104,32-50,56-68,52-24,84-31Z"/>
  <path fill="#fff" d="M60,530c18,14,44,24,74,30s66,6,104,2,76-12,118-20,86-18,122-30,62-26,88-42,48-34,66-56,30-46,40-70,18-48,24-76,8-60-4-84-38-42-70-52-70-14-112-20-86-12-128-18-84-12-122-10-70,10-100,20-56,22-76,38-34,34-46,56-20,46-28,70-16,46-18,70,2,48,12,70,26,40,44,56,40,28,60,36Z"/>
  <rect width="800" height="600" fill="#fff" filter="url(#grain)" opacity="0.15"/>
</svg>
